<svg width="40" height="40" viewBox="0 0 40 40" fill="none" xmlns="http://www.w3.org/2000/svg">
<path opacity="0.32" d="M26.984 3.33398H13.0173C6.95065 3.33398 3.33398 6.95065 3.33398 13.0173V26.9673C3.33398 33.0507 6.95065 36.6673 13.0173 36.6673H26.9673C33.034 36.6673 36.6507 33.0507 36.6507 26.984V13.0173C36.6673 6.95065 33.0507 3.33398 26.984 3.33398Z" fill="#0E68F1"/>
<path d="M26.4828 13.5172C24.0162 11.0672 20.0162 11.0672 17.5662 13.5172C15.8495 15.2172 15.3328 17.6839 15.9995 19.8505L12.0828 23.7672C11.8162 24.0505 11.6162 24.6005 11.6828 25.0005L11.9328 26.8172C12.0162 27.4172 12.5828 27.9839 13.1828 28.0672L14.9995 28.3339C15.3995 28.3839 15.9495 28.2172 16.2328 27.9172L16.9162 27.2339C17.0828 27.0839 17.0828 26.8172 16.9162 26.6505L15.2995 25.0339C15.0662 24.8005 15.0662 24.4005 15.2995 24.1505C15.5328 23.9172 15.9328 23.9172 16.1828 24.1505L17.7995 25.7672C17.9495 25.9172 18.2162 25.9172 18.3828 25.7672L20.1495 24.0172C22.2995 24.6839 24.7662 24.1672 26.4828 22.4672C28.9495 19.9839 28.9495 15.9839 26.4828 13.5172ZM22.0828 20.0005C20.9328 20.0005 19.9995 19.0672 19.9995 17.9172C19.9995 16.7672 20.9328 15.8339 22.0828 15.8339C23.2328 15.8339 24.1662 16.7672 24.1662 17.9172C24.1662 19.0672 23.2328 20.0005 22.0828 20.0005Z" fill="#0E68F1"/>
</svg>
