<svg width="24" height="24" viewBox="0 0 24 24" fill="none" xmlns="http://www.w3.org/2000/svg">
<path opacity="0.32" d="M2 5.43266C2 3.64188 2.66203 2 5.47813 2H18.5219C21.3383 2 22 3.64188 22 5.43266V18.5676C22 20.3586 21.3383 22 18.5219 22H5.47813C2.66211 22 2 20.3587 2 18.5678V5.43266Z" fill="#0E68F1"/>
<path d="M8.72404 17.9997V9.90305H6.15163V17.9997H8.72431H8.72404ZM7.43837 8.79778C8.33524 8.79778 8.8936 8.17605 8.8936 7.39907C8.87681 6.60438 8.33524 6 7.45543 6C6.57501 6 6 6.60438 6 7.399C6 8.17598 6.55816 8.79771 7.42152 8.79771H7.43817L7.43837 8.79778ZM10.1479 17.9997H12.7201V13.4787C12.7201 13.237 12.7369 12.9947 12.8049 12.8221C12.9907 12.3384 13.414 11.8377 14.1248 11.8377C15.0554 11.8377 15.4279 12.5801 15.4279 13.6687V17.9997H18V13.3573C18 10.8705 16.7311 9.71323 15.0387 9.71323C13.6512 9.71323 13.0418 10.5246 12.7032 11.0772H12.7203V9.90333H10.148C10.1816 10.6629 10.1478 18 10.1478 18L10.1479 17.9997Z" fill="#0E68F1"/>
</svg>
